<svg width="465" height="548" viewBox="0 0 465 548" fill="none" xmlns="http://www.w3.org/2000/svg">
<rect x="12" y="60" width="376" height="476" rx="148" fill="white" stroke="black" stroke-width="24"/>
<path d="M377.282 113.6V77.6H348.482V59.6H377.282V23.6H409.682V59.6H438.482V77.6H409.682V113.6H377.282Z" fill="black"/>
<path d="M94.0113 169.518C94.114 169.621 92.8306 168.491 90.1613 166.13C88.3133 164.487 86.9273 163.307 86.0033 162.588C86.414 159.816 87.4406 157.865 89.0833 156.736C90.726 155.607 92.882 154.734 95.5513 154.118C98.3233 153.399 101.301 153.04 104.483 153.04C107.563 153.04 110.695 153.348 113.877 153.964C123.015 155.607 131.074 157.506 138.055 159.662C145.037 161.818 151.556 164.847 157.613 168.748C161.823 171.315 165.365 174.343 168.239 177.834C172.449 183.275 174.553 188.819 174.553 194.466C174.553 199.291 172.962 204.271 169.779 209.404C157.665 228.603 145.191 243.746 132.357 254.834C124.555 261.713 115.931 267.359 106.485 271.774C102.995 273.519 99.35 274.392 95.5513 274.392C91.034 274.392 86.6706 273.109 82.4613 270.542C80.9213 269.515 79.7406 268.437 78.9193 267.308C78.098 266.281 77.6873 265.049 77.6873 263.612L77.8413 262.226L78.9193 254.218C80.1513 244.773 81.2806 237.74 82.3073 233.12L83.0773 229.732C86.1573 216.385 88.4673 205.657 90.0073 197.546C91.5473 189.333 92.6766 180.914 93.3953 172.29L94.0113 169.518ZM114.339 167.67C113.107 167.567 111.465 167.67 109.411 167.978L106.023 168.44C108.487 170.493 110.284 172.29 111.413 173.83C112.543 175.37 113.107 177.013 113.107 178.758C113.107 179.169 113.005 179.887 112.799 180.914C111.465 186.869 109.668 194.209 107.409 202.936L101.865 225.112C99.4013 235.173 97.2453 244.516 95.3973 253.14C95.0893 254.269 94.884 255.553 94.7813 256.99C94.7813 258.325 94.7813 259.3 94.7813 259.916C95.7053 260.327 96.2186 260.532 96.3213 260.532L98.3233 259.762C113.723 252.267 126.865 241.795 137.747 228.346C142.162 222.699 145.858 217.361 148.835 212.33C151.915 207.299 154.225 202.012 155.765 196.468C156.176 195.133 156.381 193.542 156.381 191.694C156.381 188.511 155.56 185.637 153.917 183.07C152.377 180.503 150.221 178.553 147.449 177.218C137.183 172.598 126.146 169.415 114.339 167.67ZM236.849 259.146C235.925 258.735 235.001 258.53 234.077 258.53C233.153 258.53 232.331 258.787 231.613 259.3C230.997 259.711 230.278 260.378 229.457 261.302C228.225 262.534 226.941 263.561 225.607 264.382C224.375 265.101 222.116 265.768 218.831 266.384C217.393 266.589 216.213 266.692 215.289 266.692C210.977 266.692 206.459 265.768 201.737 263.92C197.117 261.969 193.831 259.659 191.881 256.99C189.827 254.115 188.852 251.035 188.955 247.75C189.057 242.822 191.111 237.894 195.115 232.966C199.016 228.243 202.558 224.907 205.741 222.956C209.026 221.005 213.492 219.773 219.139 219.26C220.371 219.26 222.116 219.055 224.375 218.644C226.736 218.233 227.917 217.669 227.917 216.95C227.917 215.513 227.249 214.229 225.915 213.1C224.683 211.868 222.116 211.252 218.215 211.252C216.777 211.252 214.621 211.355 211.747 211.56C208.872 211.765 206.87 211.868 205.741 211.868C202.25 211.868 199.735 211.303 198.195 210.174C197.784 209.969 197.579 208.993 197.579 207.248C197.579 204.168 198.657 202.217 200.813 201.396C205.227 199.753 209.796 198.881 214.519 198.778C220.473 198.778 225.966 200.113 230.997 202.782C236.13 205.349 239.877 208.583 242.239 212.484C244.6 216.385 246.14 221.775 246.859 228.654C247.68 236.354 248.091 246.159 248.091 258.068C248.091 261.353 247.629 263.253 246.705 263.766C245.883 264.279 245.113 264.536 244.395 264.536C243.471 264.536 242.598 264.279 241.777 263.766C241.058 263.15 240.237 262.329 239.313 261.302C238.389 260.173 237.567 259.454 236.849 259.146ZM212.517 257.298C217.342 255.861 222.065 253.551 226.685 250.368C227.711 249.649 228.635 248.725 229.457 247.596C230.278 246.467 230.791 245.748 230.997 245.44C231.202 245.132 231.356 244.259 231.459 242.822C231.664 241.282 231.715 240.05 231.613 239.126C231.51 238.818 231.305 237.997 230.997 236.662C230.791 235.327 230.432 234.147 229.919 233.12C229.405 232.299 228.584 231.529 227.455 230.81C226.325 230.091 225.299 229.783 224.375 229.886C222.424 229.989 220.319 230.707 218.061 232.042C215.802 233.377 213.697 235.173 211.747 237.432C209.796 239.793 208.256 242.206 207.127 244.67C206.1 247.031 205.587 249.239 205.587 251.292C205.792 254.064 206.562 255.912 207.897 256.836C208.615 257.349 209.488 257.606 210.515 257.606C211.336 257.606 212.003 257.503 212.517 257.298ZM296.042 236.354C297.89 228.859 299.02 223.059 299.43 218.952C299.944 214.743 300.816 211.765 302.048 210.02C303.28 208.275 305.334 207.402 308.208 207.402C312.52 207.402 315.96 208.377 318.526 210.328C321.093 212.279 322.376 214.948 322.376 218.336C322.376 218.747 322.274 219.568 322.068 220.8C320.528 229.219 318.013 237.997 314.522 247.134C308.978 262.123 303.024 277.113 296.658 292.102C294.708 296.517 291.782 300.777 287.88 304.884C286.956 305.911 286.084 306.424 285.262 306.424C284.03 306.424 283.106 305.089 282.49 302.42C281.874 299.648 281.566 296.979 281.566 294.412C281.566 291.435 281.874 288.457 282.49 285.48C283.106 282.605 283.979 279.115 285.108 275.008C286.135 271.107 286.854 268.181 287.264 266.23C287.675 264.177 287.88 262.739 287.88 261.918C287.88 258.735 286.34 256.117 283.26 254.064C277.922 250.573 273.866 246.159 271.094 240.82C268.425 235.379 266.269 228.911 264.626 221.416C264.524 221.108 264.472 220.646 264.472 220.03C264.472 218.182 265.191 216.591 266.628 215.256C268.066 213.921 269.708 213.254 271.556 213.254C272.686 213.254 273.661 213.459 274.482 213.87C277.152 214.999 279.256 216.437 280.796 218.182C282.336 219.825 283.466 222.032 284.184 224.804C284.8 227.371 285.724 230.04 286.956 232.812C288.188 235.584 288.907 237.278 289.112 237.894L291.268 242.976H294.656L296.042 236.354ZM135.425 420.216C135.733 421.243 135.887 422.218 135.887 423.142C135.887 424.785 135.374 426.119 134.347 427.146C133.423 428.07 132.14 428.532 130.497 428.532C129.881 428.532 129.368 428.481 128.957 428.378C124.337 427.351 120.693 426.222 118.023 424.99C115.97 424.066 112.171 421.756 106.627 418.06C102.418 415.288 98.9273 413.132 96.1553 411.592C92.5619 409.641 88.7119 408.307 84.6053 407.588C82.7573 407.28 78.3939 406.767 71.5153 406.048C68.4353 405.843 66.1766 405.637 64.7393 405.432L61.9673 428.224L62.1213 430.688C62.1213 434.384 61.6593 436.848 60.7353 438.08C59.9139 439.312 58.1686 439.928 55.4993 439.928C52.7273 439.928 50.3146 439.055 48.2613 437.31C46.2079 435.565 45.1813 433.409 45.1813 430.842C45.1813 423.039 45.5919 416.109 46.4133 410.052C49.2879 391.469 55.9099 372.168 66.2793 352.148C72.1313 340.957 81.1146 332.333 93.2293 326.276C97.1306 324.325 101.083 323.35 105.087 323.35C109.194 323.35 112.993 324.428 116.483 326.584C120.077 328.637 123.054 331.666 125.415 335.67C127.571 339.263 128.649 342.754 128.649 346.142C128.649 350.865 126.801 355.639 123.105 360.464C118.691 366.213 112.428 374.375 104.317 384.95L94.3073 397.886C94.4099 397.886 94.5126 398.04 94.6153 398.348C94.8206 398.553 95.0259 398.759 95.2313 398.964L98.6193 400.812C107.141 405.432 113.403 409.077 117.407 411.746C121.309 414.107 125.467 415.288 129.881 415.288C131.216 415.288 132.243 415.237 132.961 415.134C133.269 415.647 133.68 416.417 134.193 417.444C134.707 418.471 135.117 419.395 135.425 420.216ZM78.4453 389.724C82.6546 385.001 86.8639 380.073 91.0733 374.94C95.3853 369.807 99.1839 364.981 102.469 360.464C103.804 358.616 104.933 356.665 105.857 354.612C106.781 352.456 107.603 350.3 108.321 348.144C109.143 345.988 109.707 344.448 110.015 343.524C110.118 343.216 110.169 342.703 110.169 341.984C110.169 341.163 110.067 340.136 109.861 338.904C109.656 337.672 109.502 336.799 109.399 336.286C101.905 338.545 95.0773 343.165 88.9173 350.146C82.7573 357.127 77.8806 364.879 74.2873 373.4C70.7966 381.921 68.9999 389.262 68.8973 395.422C70.9506 395.627 72.5419 395.268 73.6713 394.344C74.9033 393.42 76.4946 391.88 78.4453 389.724ZM180.309 410.976C179.282 411.592 177.794 411.9 175.843 411.9C175.124 411.9 174.252 411.849 173.225 411.746C172.198 411.643 171.326 411.643 170.607 411.746C171.428 415.134 173.379 417.906 176.459 420.062C179.539 422.115 182.978 423.142 186.777 423.142C190.062 423.142 192.988 422.423 195.555 420.986C199.354 419.035 202.639 416.725 205.411 414.056C207.362 412.105 209.21 411.13 210.955 411.13C212.084 411.13 213.06 411.695 213.881 412.824C214.702 414.159 215.113 415.801 215.113 417.752C215.113 419.805 214.702 421.397 213.881 422.526C211.212 426.633 207.721 429.456 203.409 430.996C199.2 432.536 194.272 433.306 188.625 433.306C182.773 433.306 177.126 432.023 171.685 429.456C166.244 426.889 161.572 423.399 157.671 418.984C153.872 414.467 151.357 409.487 150.125 404.046C149.304 400.863 148.893 397.732 148.893 394.652C148.893 389.827 150.228 385.925 152.897 382.948C155.669 379.971 160.084 377.147 166.141 374.478C171.685 372.117 176.818 370.936 181.541 370.936C184.929 370.936 188.214 371.449 191.397 372.476C201.253 375.556 206.181 379.765 206.181 385.104C206.181 388.492 204.179 392.599 200.175 397.424C198.224 399.683 195.914 401.685 193.245 403.43C190.576 405.175 187.958 406.767 185.391 408.204C182.927 409.539 181.233 410.463 180.309 410.976ZM186.777 382.486C186.674 381.973 186.264 381.562 185.545 381.254C184.929 380.843 184.57 380.587 184.467 380.484C181.695 380.279 178.872 381.1 175.997 382.948C173.122 384.693 170.71 386.952 168.759 389.724C166.911 392.496 165.987 395.165 165.987 397.732L166.141 398.964C166.244 399.375 166.757 399.888 167.681 400.504C168.708 401.12 169.324 401.325 169.529 401.12C176.818 395.679 182.311 391.315 186.007 388.03C186.623 387.414 186.931 386.285 186.931 384.642C186.931 383.615 186.88 382.897 186.777 382.486ZM224.472 459.64C224.472 431.817 224.421 410.976 224.318 397.116C224.318 394.447 224.729 392.393 225.55 390.956C226.474 389.416 228.168 388.184 230.632 387.26C234.841 385.72 240.18 383.513 246.648 380.638L254.656 377.096C255.991 376.583 257.839 376.429 260.2 376.634C266.257 377.045 270.621 378.585 273.29 381.254C275.96 383.821 277.294 387.517 277.294 392.342C277.294 395.011 276.781 398.502 275.754 402.814C274.727 407.023 272.315 412.516 268.516 419.292C265.128 425.452 260.354 428.532 254.194 428.532C252.038 428.532 249.882 428.173 247.726 427.454C246.289 427.043 245.365 426.838 244.954 426.838C242.798 426.838 241.874 428.635 242.182 432.228C242.49 439.825 242.644 447.269 242.644 454.558C242.747 456.303 242.798 458.819 242.798 462.104C242.798 464.055 242.747 465.543 242.644 466.57L242.49 470.882C242.49 473.551 241.669 475.707 240.026 477.35C238.383 478.993 236.227 479.814 233.558 479.814C231.197 479.814 229.143 478.941 227.398 477.196C225.653 475.451 224.78 473.397 224.78 471.036V459.64H224.472ZM241.566 400.35C241.053 400.761 240.642 401.479 240.334 402.506C240.129 403.43 239.975 404.405 239.872 405.432C239.769 406.356 239.615 407.229 239.41 408.05C239.513 408.153 239.615 408.204 239.718 408.204C239.923 408.204 240.077 408.255 240.18 408.358C240.18 408.974 240.231 410.052 240.334 411.592C240.437 413.132 240.591 414.518 240.796 415.75C241.104 417.187 241.617 418.317 242.336 419.138C243.055 419.857 243.876 420.216 244.8 420.216C246.032 420.216 247.264 419.651 248.496 418.522C255.272 412.773 259.173 404.405 260.2 393.42C260.2 392.907 259.738 392.137 258.814 391.11C257.89 390.083 257.377 389.621 257.274 389.724C254.605 391.367 251.833 393.112 248.958 394.96C246.083 396.705 243.619 398.502 241.566 400.35ZM348.34 382.794C349.264 384.642 350.085 386.747 350.804 389.108C351.625 391.367 352.19 392.855 352.498 393.574L353.884 397.578C352.652 403.43 351.42 408.255 350.188 412.054C348.956 415.75 347.159 419.241 344.798 422.526C342.437 425.709 339.203 428.327 335.096 430.38C331.297 432.331 327.242 433.306 322.93 433.306C318.207 433.306 313.639 432.228 309.224 430.072C304.912 427.916 301.267 424.939 298.29 421.14C295.313 417.239 293.567 412.875 293.054 408.05C292.849 405.586 292.746 403.687 292.746 402.352C292.746 398.759 293.259 395.473 294.286 392.496C295.415 389.519 297.366 386.798 300.138 384.334C300.959 383.615 301.883 382.229 302.91 380.176C303.834 378.328 304.707 376.942 305.528 376.018C309.84 371.398 314.973 369.088 320.928 369.088C323.905 369.088 327.396 369.755 331.4 371.09C331.913 371.295 333.607 371.911 336.482 372.938C339.459 373.965 341.923 375.299 343.874 376.942C345.825 378.585 347.313 380.535 348.34 382.794ZM321.544 377.712C317.745 380.792 315.025 384.488 313.382 388.8C311.842 393.009 310.456 398.707 309.224 405.894C309.429 406.715 309.891 408.461 310.61 411.13C311.329 413.799 312.201 416.263 313.228 418.522C314.357 421.294 316.359 422.68 319.234 422.68C319.747 422.68 320.723 422.577 322.16 422.372C325.343 421.756 328.115 419.959 330.476 416.982C332.94 413.902 334.839 410.309 336.174 406.202C337.509 402.095 338.176 398.297 338.176 394.806C338.176 387.927 335.353 382.127 329.706 377.404C328.269 376.275 326.985 375.71 325.856 375.71C324.624 375.71 323.187 376.377 321.544 377.712Z" fill="black"/>
<path d="M345 358H355.688L429 284.688L418.312 274L345 347.312V358ZM330 373V341.125L429 242.312C430.5 240.937 432.156 239.875 433.969 239.125C435.781 238.375 437.687 238 439.688 238C441.688 238 443.625 238.375 445.5 239.125C447.375 239.875 449 241 450.375 242.5L460.688 253C462.188 254.375 463.281 256 463.969 257.875C464.656 259.75 465 261.625 465 263.5C465 265.5 464.656 267.406 463.969 269.219C463.281 271.031 462.188 272.688 460.688 274.188L361.875 373H330ZM423.562 279.438L418.312 274L429 284.688L423.562 279.438Z" fill="black"/>
</svg>
